<svg xmlns="http://www.w3.org/2000/svg" xmlns:xlink="http://www.w3.org/1999/xlink" xmlns:lucid="lucid" width="1441" height="164.24"><g transform="translate(-99 -311.7554092596451)" lucid:page-tab-id="0_0"><g filter="url(#a)"><path d="M260.32 355c19.37 0 35.08 17.9 35.08 40s-15.7 40-35.08 40H155.08C135.7 435 120 417.1 120 395s15.7-40 35.08-40z" stroke="#3d4752" stroke-width="4" fill="#ffdba9"/><use xlink:href="#b" transform="matrix(1,0,0,1,135,370) translate(44.888888888888886 30.333333333333336)"/></g><path d="M298.4 395h81.77" stroke="#000" stroke-width="2" fill="none"/><path d="M298.43 396h-1.1l.07-.97-.03-1.03h1.06z"/><path d="M395.43 395l-14.26 4.64v-9.28z" stroke="#000" stroke-width="2"/><g filter="url(#c)"><path d="M860 343c0-4.42 3.58-8 8-8h103.67c4.42 0 8 3.58 8 8v104c0 4.42-3.58 8-8 8H868c-4.42 0-8-3.58-8-8z" stroke="#3d4752" stroke-width="4" fill="#fff"/><use xlink:href="#d" transform="matrix(1,0,0,1,875,350) translate(30.5 48.6)"/></g><path d="M399.67 358.26l160-18.26v110h-160z" stroke="#000" stroke-width="2" fill="#fff"/><use xlink:href="#e" transform="matrix(1,0,0,1,404.66942148760324,363.3333333333333) translate(52.075 44.6)"/><path d="M700.36 445.05h-138.7v-2h138.7zm139.14 0H718.3v-2h121.2z"/><path d="M561.7 445.05h-1.03v-2h1.03zM854.76 444.05l-14.26 4.64v-9.28z"/><path d="M858 444.05l-18.5 6.02v-12.03zm-16.5 3.26l10.03-3.25-10.03-3.25z"/><use xlink:href="#f" transform="matrix(1,0,0,1,700.3597107438017,433.2545023696682) translate(0 14.4)"/><path d="M1520 335c-8.84 0-16 26.86-16 60s7.16 60 16 60h-144c-8.84 0-16-26.86-16-60s7.16-60 16-60z" stroke="#000" stroke-width="2" fill="#fff"/><use xlink:href="#g" transform="matrix(1,0,0,1,1365,340) translate(35.05 58.6)"/><path d="M622.9 343.76h-43.73v-2h43.74zm234.1 0h-61.24v-2H857z"/><path d="M858 342.8v.96h-1.02v-2h1.23zM578.17 347.4l-14.26-4.64 14.27-4.64z"/><path d="M579.17 348.77l-18.5-6 18.5-6.03zm-12.03-6l10.03 3.24v-6.5z"/><use xlink:href="#h" transform="matrix(1,0,0,1,622.9142246518791,331.95540925964514) translate(0 14.4)"/><use xlink:href="#i" transform="matrix(1,0,0,1,622.9142246518791,331.95540925964514) translate(68.9 14.4)"/><use xlink:href="#j" transform="matrix(1,0,0,1,622.9142246518791,331.95540925964514) translate(83.9 14.4)"/><path d="M980 400l40-40v20h300v-20l40 40-40 40v-20h-300v20z" stroke="#000" stroke-width="2" fill="#fff"/><g><use xlink:href="#k" transform="matrix(1,0,0,1,985,365) translate(80.6 38.6)"/><use xlink:href="#l" transform="matrix(1,0,0,1,985,365) translate(159.55 38.6)"/><use xlink:href="#m" transform="matrix(1,0,0,1,985,365) translate(198.5 38.6)"/></g><defs><path fill="#3d4752" d="M185-189c-5-48-123-54-124 2 14 75 158 14 163 119 3 78-121 87-175 55-17-10-28-26-33-46l33-7c5 56 141 63 141-1 0-78-155-14-162-118-5-82 145-84 179-34 5 7 8 16 11 25" id="n"/><path fill="#3d4752" d="M59-47c-2 24 18 29 38 22v24C64 9 27 4 27-40v-127H5v-23h24l9-43h21v43h35v23H59v120" id="o"/><path fill="#3d4752" d="M141-36C126-15 110 5 73 4 37 3 15-17 15-53c-1-64 63-63 125-63 3-35-9-54-41-54-24 1-41 7-42 31l-33-3c5-37 33-52 76-52 45 0 72 20 72 64v82c-1 20 7 32 28 27v20c-31 9-61-2-59-35zM48-53c0 20 12 33 32 33 41-3 63-29 60-74-43 2-92-5-92 41" id="p"/><path fill="#3d4752" d="M114-163C36-179 61-72 57 0H25l-1-190h30c1 12-1 29 2 39 6-27 23-49 58-41v29" id="q"/><g id="b"><use transform="matrix(0.07407407407407408,0,0,0.07407407407407408,0,0)" xlink:href="#n"/><use transform="matrix(0.07407407407407408,0,0,0.07407407407407408,17.77777777777778,0)" xlink:href="#o"/><use transform="matrix(0.07407407407407408,0,0,0.07407407407407408,25.185185185185187,0)" xlink:href="#p"/><use transform="matrix(0.07407407407407408,0,0,0.07407407407407408,40,0)" xlink:href="#q"/><use transform="matrix(0.07407407407407408,0,0,0.07407407407407408,48.81481481481481,0)" xlink:href="#o"/></g><filter id="a" filterUnits="objectBoundingBox" x="-.06" y="-.05" width="1.11" height="1.25"><feOffset result="offOut" in="SourceAlpha" dy="6"/><feGaussianBlur result="blurOut" in="offOut" stdDeviation="5"/><feColorMatrix result="colorOut" in="blurOut" values="0 0 0 0 0 0 0 0 0 0 0 0 0 0 0 0 0 0 0.16862745098039217 0"/><feBlend in="SourceGraphic" in2="colorOut"/></filter><path d="M205 0l-28-72H64L36 0H1l101-248h38L239 0h-34zm-38-99l-47-123c-12 45-31 82-46 123h93" id="r"/><path d="M30-248c87 1 191-15 191 75 0 78-77 80-158 76V0H30v-248zm33 125c57 0 124 11 124-50 0-59-68-47-124-48v98" id="s"/><path d="M33 0v-248h34V0H33" id="t"/><g id="d"><use transform="matrix(0.05,0,0,0.05,0,0)" xlink:href="#r"/><use transform="matrix(0.05,0,0,0.05,12,0)" xlink:href="#s"/><use transform="matrix(0.05,0,0,0.05,24,0)" xlink:href="#t"/></g><filter id="c" filterUnits="objectBoundingBox" x="-.08" y="-.03" width="1.17" height="1.17"><feOffset result="offOut" in="SourceAlpha" dy="6"/><feGaussianBlur result="blurOut" in="offOut" stdDeviation="5"/><feColorMatrix result="colorOut" in="blurOut" values="0 0 0 0 0 0 0 0 0 0 0 0 0 0 0 0 0 0 0.16862745098039217 0"/><feBlend in="SourceGraphic" in2="colorOut"/></filter><path d="M212-179c-10-28-35-45-73-45-59 0-87 40-87 99 0 60 29 101 89 101 43 0 62-24 78-52l27 14C228-24 195 4 139 4 59 4 22-46 18-125c-6-104 99-153 187-111 19 9 31 26 39 46" id="u"/><path d="M24 0v-261h32V0H24" id="v"/><path d="M24-231v-30h32v30H24zM24 0v-190h32V0H24" id="w"/><path d="M100-194c63 0 86 42 84 106H49c0 40 14 67 53 68 26 1 43-12 49-29l28 8c-11 28-37 45-77 45C44 4 14-33 15-96c1-61 26-98 85-98zm52 81c6-60-76-77-97-28-3 7-6 17-6 28h103" id="x"/><path d="M117-194c89-4 53 116 60 194h-32v-121c0-31-8-49-39-48C34-167 62-67 57 0H25l-1-190h30c1 10-1 24 2 32 11-22 29-35 61-36" id="y"/><path d="M59-47c-2 24 18 29 38 22v24C64 9 27 4 27-40v-127H5v-23h24l9-43h21v43h35v23H59v120" id="z"/><g id="e"><use transform="matrix(0.05,0,0,0.05,0,0)" xlink:href="#u"/><use transform="matrix(0.05,0,0,0.05,12.950000000000001,0)" xlink:href="#v"/><use transform="matrix(0.05,0,0,0.05,16.900000000000002,0)" xlink:href="#w"/><use transform="matrix(0.05,0,0,0.05,20.85,0)" xlink:href="#x"/><use transform="matrix(0.05,0,0,0.05,30.85,0)" xlink:href="#y"/><use transform="matrix(0.05,0,0,0.05,40.85,0)" xlink:href="#z"/></g><path d="M30-248c118-7 216 8 213 122C240-48 200 0 122 0H30v-248zM63-27c89 8 146-16 146-99s-60-101-146-95v194" id="A"/><g id="f"><use transform="matrix(0.05,0,0,0.05,0,0)" xlink:href="#t"/><use transform="matrix(0.05,0,0,0.05,5,0)" xlink:href="#A"/></g><path d="M240 0l2-218c-23 76-54 145-80 218h-23L58-218 59 0H30v-248h44l77 211c21-75 51-140 76-211h43V0h-30" id="B"/><path d="M100-194c62-1 85 37 85 99 1 63-27 99-86 99S16-35 15-95c0-66 28-99 85-99zM99-20c44 1 53-31 53-75 0-43-8-75-51-75s-53 32-53 75 10 74 51 75" id="C"/><path d="M177-190C167-65 218 103 67 71c-23-6-38-20-44-43l32-5c15 47 100 32 89-28v-30C133-14 115 1 83 1 29 1 15-40 15-95c0-56 16-97 71-98 29-1 48 16 59 35 1-10 0-23 2-32h30zM94-22c36 0 50-32 50-73 0-42-14-75-50-75-39 0-46 34-46 75s6 73 46 73" id="D"/><path d="M160-131c35 5 61 23 61 61C221 17 115-2 30 0v-248c76 3 177-17 177 60 0 33-19 50-47 57zm-97-11c50-1 110 9 110-42 0-47-63-36-110-37v79zm0 115c55-2 124 14 124-45 0-56-70-42-124-44v89" id="E"/><g id="g"><use transform="matrix(0.05,0,0,0.05,0,0)" xlink:href="#B"/><use transform="matrix(0.05,0,0,0.05,14.950000000000001,0)" xlink:href="#C"/><use transform="matrix(0.05,0,0,0.05,24.950000000000003,0)" xlink:href="#y"/><use transform="matrix(0.05,0,0,0.05,34.95,0)" xlink:href="#D"/><use transform="matrix(0.05,0,0,0.05,44.95,0)" xlink:href="#C"/><use transform="matrix(0.05,0,0,0.05,54.95,0)" xlink:href="#A"/><use transform="matrix(0.05,0,0,0.05,67.9,0)" xlink:href="#E"/></g><path d="M233-177c-1 41-23 64-60 70L243 0h-38l-65-103H63V0H30v-248c88 3 205-21 203 71zM63-129c60-2 137 13 137-47 0-61-80-42-137-45v92" id="F"/><path d="M114-163C36-179 61-72 57 0H25l-1-190h30c1 12-1 29 2 39 6-27 23-49 58-41v29" id="G"/><path d="M141-36C126-15 110 5 73 4 37 3 15-17 15-53c-1-64 63-63 125-63 3-35-9-54-41-54-24 1-41 7-42 31l-33-3c5-37 33-52 76-52 45 0 72 20 72 64v82c-1 20 7 32 28 27v20c-31 9-61-2-59-35zM48-53c0 20 12 33 32 33 41-3 63-29 60-74-43 2-92-5-92 41" id="H"/><g id="h"><use transform="matrix(0.05,0,0,0.05,0,0)" xlink:href="#F"/><use transform="matrix(0.05,0,0,0.05,12.950000000000001,0)" xlink:href="#x"/><use transform="matrix(0.05,0,0,0.05,22.950000000000003,0)" xlink:href="#z"/><use transform="matrix(0.05,0,0,0.05,27.950000000000003,0)" xlink:href="#C"/><use transform="matrix(0.05,0,0,0.05,37.95,0)" xlink:href="#G"/><use transform="matrix(0.05,0,0,0.05,43.900000000000006,0)" xlink:href="#y"/><use transform="matrix(0.05,0,0,0.05,53.900000000000006,0)" xlink:href="#H"/></g><use transform="matrix(0.05,0,0,0.05,0,0)" xlink:href="#C" id="i"/><path d="M85-194c31 0 48 13 60 33l-1-100h32l1 261h-30c-2-10 0-23-3-31C134-8 116 4 85 4 32 4 16-35 15-94c0-66 23-100 70-100zm9 24c-40 0-46 34-46 75 0 40 6 74 45 74 42 0 51-32 51-76 0-42-9-74-50-73" id="I"/><path d="M96-169c-40 0-48 33-48 73s9 75 48 75c24 0 41-14 43-38l32 2c-6 37-31 61-74 61-59 0-76-41-82-99-10-93 101-131 147-64 4 7 5 14 7 22l-32 3c-4-21-16-35-41-35" id="J"/><path d="M84 4C-5 8 30-112 23-190h32v120c0 31 7 50 39 49 72-2 45-101 50-169h31l1 190h-30c-1-10 1-25-2-33-11 22-28 36-60 37" id="K"/><path d="M210-169c-67 3-38 105-44 169h-31v-121c0-29-5-50-35-48C34-165 62-65 56 0H25l-1-190h30c1 10-1 24 2 32 10-44 99-50 107 0 11-21 27-35 58-36 85-2 47 119 55 194h-31v-121c0-29-5-49-35-48" id="L"/><g id="j"><use transform="matrix(0.05,0,0,0.05,0,0)" xlink:href="#I"/><use transform="matrix(0.05,0,0,0.05,10,0)" xlink:href="#C"/><use transform="matrix(0.05,0,0,0.05,20,0)" xlink:href="#J"/><use transform="matrix(0.05,0,0,0.05,29,0)" xlink:href="#K"/><use transform="matrix(0.05,0,0,0.05,39,0)" xlink:href="#L"/><use transform="matrix(0.05,0,0,0.05,53.95,0)" xlink:href="#x"/><use transform="matrix(0.05,0,0,0.05,63.95,0)" xlink:href="#y"/><use transform="matrix(0.05,0,0,0.05,73.95,0)" xlink:href="#z"/><use transform="matrix(0.05,0,0,0.05,78.95,0)" xlink:href="#C"/></g><path d="M135-143c-3-34-86-38-87 0 15 53 115 12 119 90S17 21 10-45l28-5c4 36 97 45 98 0-10-56-113-15-118-90-4-57 82-63 122-42 12 7 21 19 24 35" id="M"/><path d="M145-31C134-9 116 4 85 4 32 4 16-35 15-94c0-59 17-99 70-100 32-1 48 14 60 33 0-11-1-24 2-32h30l-1 268h-32zM93-21c41 0 51-33 51-76s-8-73-50-73c-40 0-46 35-46 75s5 74 45 74" id="N"/><g id="k"><use transform="matrix(0.05,0,0,0.05,0,0)" xlink:href="#s"/><use transform="matrix(0.05,0,0,0.05,12,0)" xlink:href="#x"/><use transform="matrix(0.05,0,0,0.05,22,0)" xlink:href="#M"/><use transform="matrix(0.05,0,0,0.05,31,0)" xlink:href="#N"/><use transform="matrix(0.05,0,0,0.05,41,0)" xlink:href="#K"/><use transform="matrix(0.05,0,0,0.05,51,0)" xlink:href="#w"/><use transform="matrix(0.05,0,0,0.05,54.95,0)" xlink:href="#M"/><use transform="matrix(0.05,0,0,0.05,63.95,0)" xlink:href="#H"/></g><path d="M115-194c55 1 70 41 70 98S169 2 115 4C84 4 66-9 55-30l1 105H24l-1-265h31l2 30c10-21 28-34 59-34zm-8 174c40 0 45-34 45-75s-6-73-45-74c-42 0-51 32-51 76 0 43 10 73 51 73" id="O"/><g id="l"><use transform="matrix(0.05,0,0,0.05,0,0)" xlink:href="#O"/><use transform="matrix(0.05,0,0,0.05,10,0)" xlink:href="#x"/><use transform="matrix(0.05,0,0,0.05,20,0)" xlink:href="#v"/><use transform="matrix(0.05,0,0,0.05,23.95,0)" xlink:href="#C"/></g><g id="m"><use transform="matrix(0.05,0,0,0.05,0,0)" xlink:href="#A"/><use transform="matrix(0.05,0,0,0.05,12.950000000000001,0)" xlink:href="#C"/><use transform="matrix(0.05,0,0,0.05,22.950000000000003,0)" xlink:href="#J"/><use transform="matrix(0.05,0,0,0.05,31.950000000000003,0)" xlink:href="#K"/><use transform="matrix(0.05,0,0,0.05,41.95,0)" xlink:href="#L"/><use transform="matrix(0.05,0,0,0.05,56.900000000000006,0)" xlink:href="#x"/><use transform="matrix(0.05,0,0,0.05,66.9,0)" xlink:href="#y"/><use transform="matrix(0.05,0,0,0.05,76.9,0)" xlink:href="#z"/><use transform="matrix(0.05,0,0,0.05,81.9,0)" xlink:href="#C"/></g></defs></g></svg>