<svg xmlns="http://www.w3.org/2000/svg" xmlns:xlink="http://www.w3.org/1999/xlink" xmlns:lucid="lucid" width="1540.34" height="519.2"><g transform="translate(-59 -79)" lucid:page-tab-id="0_0"><path d="M460 438.06h240v80.28H460z" fill="none"/><use xlink:href="#a" transform="matrix(1,0,0,1,460,438.0643364928444) translate(12.599999999999994 33.3)"/><use xlink:href="#b" transform="matrix(1,0,0,1,460,438.0643364928444) translate(81.5 33.3)"/><use xlink:href="#c" transform="matrix(1,0,0,1,460,438.0643364928444) translate(104.45 33.3)"/><use xlink:href="#d" transform="matrix(1,0,0,1,460,438.0643364928444) translate(129.45 33.3)"/><use xlink:href="#e" transform="matrix(1,0,0,1,460,438.0643364928444) translate(197.4 33.3)"/><use xlink:href="#f" transform="matrix(1,0,0,1,460,438.0643364928444) translate(39.099999999999994 54.9)"/><use xlink:href="#g" transform="matrix(1,0,0,1,460,438.0643364928444) translate(74.1 54.9)"/><use xlink:href="#h" transform="matrix(1,0,0,1,460,438.0643364928444) translate(125 54.9)"/><path d="M1555.4 378.2c13.22 0 23.94 44.77 23.94 100s-10.72 100-23.94 100h-191.47c-13.2 0-23.93-44.77-23.93-100s10.72-100 23.93-100z" stroke="#000" stroke-width="2" fill="#fff"/><path d="M1555.4 578.2c-13.2 0-23.93-44.77-23.93-100s10.72-100 23.93-100" stroke="#000" stroke-width="2" fill="none"/><use xlink:href="#i" transform="matrix(1,0,0,1,1345,383.19999999995343) translate(22.14999999999999 98.60000000000001)"/><g filter="url(#j)"><path d="M220.32 115c19.37 0 35.08 17.9 35.08 40s-15.7 40-35.08 40H115.08C95.7 195 80 177.1 80 155s15.7-40 35.08-40z" stroke="#3d4752" stroke-width="4" fill="#ffdba9"/><use xlink:href="#k" transform="matrix(1,0,0,1,95,130) translate(44.888888888888886 30.333333333333336)"/></g><path d="M258.4 155h81.77" stroke="#000" stroke-width="2" fill="none"/><path d="M258.43 156h-1.1l.07-.97-.03-1.03h1.06z"/><path d="M355.43 155l-14.26 4.64v-9.28z" stroke="#000" stroke-width="2"/><g filter="url(#l)"><path d="M900 108c0-4.42 3.58-8 8-8h103.67c4.42 0 8 3.58 8 8v104c0 4.42-3.58 8-8 8H908c-4.42 0-8-3.58-8-8z" stroke="#3d4752" stroke-width="4" fill="#fff"/><use xlink:href="#m" transform="matrix(1,0,0,1,915,115) translate(30.5 48.6)"/></g><path d="M359.67 118.26l160-18.26v110h-160z" stroke="#000" stroke-width="2" fill="#fff"/><use xlink:href="#n" transform="matrix(1,0,0,1,364.66942148760324,123.33333333333333) translate(52.075 44.6)"/><path d="M645.88 156h-124.2v-2h124.2zm233.62 0H772.78v-2H879.5z"/><path d="M521.7 156h-1.03v-2h1.03zM894.76 155l-14.26 4.64v-9.28z"/><path d="M898 155l-18.5 6v-12zm-16.5 3.26l10.03-3.26-10.03-3.26z"/><use xlink:href="#o" transform="matrix(1,0,0,1,645.8847107438016,144.2) translate(0 14.4)"/><use xlink:href="#p" transform="matrix(1,0,0,1,645.8847107438016,144.2) translate(87.9 14.4)"/><path d="M1560 100c-8.84 0-16 26.86-16 60s7.16 60 16 60h-144c-8.84 0-16-26.86-16-60s7.16-60 16-60z" stroke="#000" stroke-width="2" fill="#fff"/><use xlink:href="#q" transform="matrix(1,0,0,1,1405,105) translate(35.05 58.6)"/><path d="M1020.3 260c22.1 0 40.03 21.58 40.03 48.2 0 26.62-17.92 48.2-40.03 48.2H900.2c-22.1 0-40.03-21.58-40.03-48.2 0-26.62 17.92-48.2 40.03-48.2z" stroke="#000" stroke-width="2" fill="#fff"/><use xlink:href="#r" transform="matrix(1,0,0,1,865.1652892562561,264.99999999990683) translate(9.625 25.5)"/><use xlink:href="#s" transform="matrix(1,0,0,1,865.1652892562561,264.99999999990683) translate(73.475 25.5)"/><use xlink:href="#t" transform="matrix(1,0,0,1,865.1652892562561,264.99999999990683) translate(88.475 25.5)"/><use xlink:href="#u" transform="matrix(1,0,0,1,865.1652892562561,264.99999999990683) translate(152.375 25.5)"/><use xlink:href="#v" transform="matrix(1,0,0,1,865.1652892562561,264.99999999990683) translate(13.050000000000011 47.1)"/><use xlink:href="#w" transform="matrix(1,0,0,1,865.1652892562561,264.99999999990683) translate(67.05000000000001 47.1)"/><use xlink:href="#x" transform="matrix(1,0,0,1,865.1652892562561,264.99999999990683) translate(144 47.1)"/><use xlink:href="#y" transform="matrix(1,0,0,1,865.1652892562561,264.99999999990683) translate(69.55 68.7)"/><path d="M959.83 223v17.5" stroke="#000" stroke-width="2" fill="none"/><path d="M960.83 223.03h-2V222h2z"/><path d="M959.83 255.76l-4.63-14.26h9.27z" stroke="#000" stroke-width="2"/><path d="M960.25 418.2l80 60-80 60-80-60z" stroke="#000" stroke-width="2" fill="#fff"/><use xlink:href="#z" transform="matrix(1,0,0,1,885.2479338843841,423.19999999995343) translate(23.575000000000003 47.8)"/><use xlink:href="#A" transform="matrix(1,0,0,1,885.2479338843841,423.19999999995343) translate(80.525 47.8)"/><use xlink:href="#B" transform="matrix(1,0,0,1,885.2479338843841,423.19999999995343) translate(32.05 69.4)"/><path d="M960.25 358.4v40.05" stroke="#000" stroke-width="2" fill="none"/><path d="M961.25 358.43h-2v-1.03h2z"/><path d="M960.25 413.7l-4.64-14.25h9.28z" stroke="#000" stroke-width="2"/><path d="M440.67 477.2h341.6v2h-343.6V229.5h2zm436.9 0v2h-5.4v-2zM878.58 478.2l1.33 1h-2.34v-2h2.35zM444.3 228.5h-9.27l4.64-14.26z"/><path d="M445.68 229.5h-12.02l6-18.5zm-9.27-2h6.53l-3.26-10.03z"/><g><use xlink:href="#C" transform="matrix(1,0,0,1,782.262085308057,467.3999999999534) translate(0 14.4)"/></g><path d="M1243.88 161h-221.2v-2h221.2zm136.62 0h-17.72v-2h17.72z"/><path d="M1022.7 161h-1.03v-2h1.03zM1395.76 160l-14.26 4.64v-9.28z"/><path d="M1399 160l-18.5 6v-12zm-16.5 3.26l10.03-3.26-10.03-3.26z"/><g><use xlink:href="#D" transform="matrix(1,0,0,1,1243.8751589719795,149.2) translate(0 14.4)"/><use xlink:href="#E" transform="matrix(1,0,0,1,1243.8751589719795,149.2) translate(69.9 14.4)"/></g><path d="M1340 478.2c0 11.05-8.95 20-20 20s-20-8.95-20-20 8.95-20 20-20 20 8.95 20 20z" stroke="#000" stroke-width="2" fill="#fff"/><path d="M1332 478.2c0 6.63-5.37 12-12 12s-12-5.37-12-12 5.37-12 12-12 12 5.37 12 12z" stroke="#000" stroke-width="2"/><path d="M1155 479.2h-112.1v-2H1155zm125.5 0h-94.6v-2h94.6z"/><path d="M1042.94 479.2h-2.36l1.33-1-1.32-1h2.36zM1295.76 478.2l-14.26 4.64v-9.28z"/><path d="M1299 478.2l-18.5 6v-12zm-16.5 3.26l10.03-3.26-10.03-3.26z"/><g><use xlink:href="#F" transform="matrix(1,0,0,1,1155.0069884216139,467.3999999999534) translate(0 14.4)"/></g><defs><path d="M233-177c-1 41-23 64-60 70L243 0h-38l-65-103H63V0H30v-248c88 3 205-21 203 71zM63-129c60-2 137 13 137-47 0-61-80-42-137-45v92" id="G"/><path d="M100-194c63 0 86 42 84 106H49c0 40 14 67 53 68 26 1 43-12 49-29l28 8c-11 28-37 45-77 45C44 4 14-33 15-96c1-61 26-98 85-98zm52 81c6-60-76-77-97-28-3 7-6 17-6 28h103" id="H"/><path d="M59-47c-2 24 18 29 38 22v24C64 9 27 4 27-40v-127H5v-23h24l9-43h21v43h35v23H59v120" id="I"/><path d="M100-194c62-1 85 37 85 99 1 63-27 99-86 99S16-35 15-95c0-66 28-99 85-99zM99-20c44 1 53-31 53-75 0-43-8-75-51-75s-53 32-53 75 10 74 51 75" id="J"/><path d="M114-163C36-179 61-72 57 0H25l-1-190h30c1 12-1 29 2 39 6-27 23-49 58-41v29" id="K"/><path d="M117-194c89-4 53 116 60 194h-32v-121c0-31-8-49-39-48C34-167 62-67 57 0H25l-1-190h30c1 10-1 24 2 32 11-22 29-35 61-36" id="L"/><path d="M141-36C126-15 110 5 73 4 37 3 15-17 15-53c-1-64 63-63 125-63 3-35-9-54-41-54-24 1-41 7-42 31l-33-3c5-37 33-52 76-52 45 0 72 20 72 64v82c-1 20 7 32 28 27v20c-31 9-61-2-59-35zM48-53c0 20 12 33 32 33 41-3 63-29 60-74-43 2-92-5-92 41" id="M"/><g id="a"><use transform="matrix(0.05,0,0,0.05,0,0)" xlink:href="#G"/><use transform="matrix(0.05,0,0,0.05,12.950000000000001,0)" xlink:href="#H"/><use transform="matrix(0.05,0,0,0.05,22.950000000000003,0)" xlink:href="#I"/><use transform="matrix(0.05,0,0,0.05,27.950000000000003,0)" xlink:href="#J"/><use transform="matrix(0.05,0,0,0.05,37.95,0)" xlink:href="#K"/><use transform="matrix(0.05,0,0,0.05,43.900000000000006,0)" xlink:href="#L"/><use transform="matrix(0.05,0,0,0.05,53.900000000000006,0)" xlink:href="#M"/></g><path d="M33 0v-248h34V0H33" id="N"/><path d="M30-248c118-7 216 8 213 122C240-48 200 0 122 0H30v-248zM63-27c89 8 146-16 146-99s-60-101-146-95v194" id="O"/><g id="b"><use transform="matrix(0.05,0,0,0.05,0,0)" xlink:href="#N"/><use transform="matrix(0.05,0,0,0.05,5,0)" xlink:href="#O"/></g><path d="M84 4C-5 8 30-112 23-190h32v120c0 31 7 50 39 49 72-2 45-101 50-169h31l1 190h-30c-1-10 1-25-2-33-11 22-28 36-60 37" id="P"/><g id="c"><use transform="matrix(0.05,0,0,0.05,0,0)" xlink:href="#J"/><use transform="matrix(0.05,0,0,0.05,10,0)" xlink:href="#P"/></g><path d="M96-169c-40 0-48 33-48 73s9 75 48 75c24 0 41-14 43-38l32 2c-6 37-31 61-74 61-59 0-76-41-82-99-10-93 101-131 147-64 4 7 5 14 7 22l-32 3c-4-21-16-35-41-35" id="Q"/><path d="M210-169c-67 3-38 105-44 169h-31v-121c0-29-5-50-35-48C34-165 62-65 56 0H25l-1-190h30c1 10-1 24 2 32 10-44 99-50 107 0 11-21 27-35 58-36 85-2 47 119 55 194h-31v-121c0-29-5-49-35-48" id="R"/><path d="M115-194c55 1 70 41 70 98S169 2 115 4C84 4 66-9 55-30l1 105H24l-1-265h31l2 30c10-21 28-34 59-34zm-8 174c40 0 45-34 45-75s-6-73-45-74c-42 0-51 32-51 76 0 43 10 73 51 73" id="S"/><path d="M135-143c-3-34-86-38-87 0 15 53 115 12 119 90S17 21 10-45l28-5c4 36 97 45 98 0-10-56-113-15-118-90-4-57 82-63 122-42 12 7 21 19 24 35" id="T"/><g id="d"><use transform="matrix(0.05,0,0,0.05,0,0)" xlink:href="#Q"/><use transform="matrix(0.05,0,0,0.05,9,0)" xlink:href="#M"/><use transform="matrix(0.05,0,0,0.05,19,0)" xlink:href="#R"/><use transform="matrix(0.05,0,0,0.05,33.95,0)" xlink:href="#S"/><use transform="matrix(0.05,0,0,0.05,43.95,0)" xlink:href="#J"/><use transform="matrix(0.05,0,0,0.05,53.95,0)" xlink:href="#T"/></g><path d="M145-31C134-9 116 4 85 4 32 4 16-35 15-94c0-59 17-99 70-100 32-1 48 14 60 33 0-11-1-24 2-32h30l-1 268h-32zM93-21c41 0 51-33 51-76s-8-73-50-73c-40 0-46 35-46 75s5 74 45 74" id="U"/><g id="e"><use transform="matrix(0.05,0,0,0.05,0,0)" xlink:href="#U"/><use transform="matrix(0.05,0,0,0.05,10,0)" xlink:href="#P"/><use transform="matrix(0.05,0,0,0.05,20,0)" xlink:href="#H"/></g><path d="M141-36C126-15 110 5 73 4 37 3 15-17 15-53c-1-64 63-63 125-63 3-35-9-54-41-54-24 1-41 7-42 31l-33-3c5-37 33-52 76-52 45 0 72 20 72 64v82c-1 20 7 32 28 27v20c-31 9-61-2-59-35zM48-53c0 20 12 33 32 33 41-3 63-29 60-74-43 2-92-5-92 41zm117-205c-3 23-9 48-36 47-26-1-65-44-74 0H39c4-23 8-48 36-47s64 44 74 0h16" id="V"/><g id="f"><use transform="matrix(0.05,0,0,0.05,0,0)" xlink:href="#L"/><use transform="matrix(0.05,0,0,0.05,10,0)" xlink:href="#V"/><use transform="matrix(0.05,0,0,0.05,20,0)" xlink:href="#J"/></g><path d="M101-234c-31-9-42 10-38 44h38v23H63V0H32v-167H5v-23h27c-7-52 17-82 69-68v24" id="W"/><g id="g"><use transform="matrix(0.05,0,0,0.05,0,0)" xlink:href="#W"/><use transform="matrix(0.05,0,0,0.05,5,0)" xlink:href="#J"/><use transform="matrix(0.05,0,0,0.05,15,0)" xlink:href="#K"/><use transform="matrix(0.05,0,0,0.05,20.95,0)" xlink:href="#M"/><use transform="matrix(0.05,0,0,0.05,30.950000000000003,0)" xlink:href="#R"/></g><path d="M108 0H70L1-190h34L89-25l56-165h34" id="X"/><path d="M24 0v-261h32V0H24" id="Y"/><path d="M24-231v-30h32v30H24zM24 0v-190h32V0H24" id="Z"/><path d="M85-194c31 0 48 13 60 33l-1-100h32l1 261h-30c-2-10 0-23-3-31C134-8 116 4 85 4 32 4 16-35 15-94c0-66 23-100 70-100zm9 24c-40 0-46 34-46 75 0 40 6 74 45 74 42 0 51-32 51-76 0-42-9-74-50-73" id="aa"/><g id="h"><use transform="matrix(0.05,0,0,0.05,0,0)" xlink:href="#X"/><use transform="matrix(0.05,0,0,0.05,9,0)" xlink:href="#M"/><use transform="matrix(0.05,0,0,0.05,19,0)" xlink:href="#Y"/><use transform="matrix(0.05,0,0,0.05,22.95,0)" xlink:href="#Z"/><use transform="matrix(0.05,0,0,0.05,26.899999999999995,0)" xlink:href="#aa"/><use transform="matrix(0.05,0,0,0.05,36.9,0)" xlink:href="#M"/><use transform="matrix(0.05,0,0,0.05,46.9,0)" xlink:href="#aa"/><use transform="matrix(0.05,0,0,0.05,56.900000000000006,0)" xlink:href="#J"/><use transform="matrix(0.05,0,0,0.05,66.9,0)" xlink:href="#T"/></g><path d="M212-179c-10-28-35-45-73-45-59 0-87 40-87 99 0 60 29 101 89 101 43 0 62-24 78-52l27 14C228-24 195 4 139 4 59 4 22-46 18-125c-6-104 99-153 187-111 19 9 31 26 39 46" id="ab"/><path d="M179-190L93 31C79 59 56 82 12 73V49c39 6 53-20 64-50L1-190h34L92-34l54-156h33" id="ac"/><path d="M0 4l72-265h28L28 4H0" id="ad"/><path d="M115-194c53 0 69 39 70 98 0 66-23 100-70 100C84 3 66-7 56-30L54 0H23l1-261h32v101c10-23 28-34 59-34zm-8 174c40 0 45-34 45-75 0-40-5-75-45-74-42 0-51 32-51 76 0 43 10 73 51 73" id="ae"/><path d="M240 0l2-218c-23 76-54 145-80 218h-23L58-218 59 0H30v-248h44l77 211c21-75 51-140 76-211h43V0h-30" id="af"/><path d="M140-251c81 0 123 46 123 126C263-53 228-8 163 1c7 30 30 48 69 40v23c-55 16-95-15-103-61C56-3 17-48 17-125c0-80 42-126 123-126zm0 227c63 0 89-41 89-101s-29-99-89-99c-61 0-89 39-89 99S79-25 140-24" id="ag"/><g id="i"><use transform="matrix(0.05,0,0,0.05,0,0)" xlink:href="#ab"/><use transform="matrix(0.05,0,0,0.05,12.950000000000001,0)" xlink:href="#H"/><use transform="matrix(0.05,0,0,0.05,22.950000000000003,0)" xlink:href="#Y"/><use transform="matrix(0.05,0,0,0.05,26.900000000000002,0)" xlink:href="#H"/><use transform="matrix(0.05,0,0,0.05,36.900000000000006,0)" xlink:href="#K"/><use transform="matrix(0.05,0,0,0.05,42.85000000000001,0)" xlink:href="#ac"/><use transform="matrix(0.05,0,0,0.05,51.85,0)" xlink:href="#ad"/><use transform="matrix(0.05,0,0,0.05,56.85,0)" xlink:href="#G"/><use transform="matrix(0.05,0,0,0.05,69.80000000000001,0)" xlink:href="#M"/><use transform="matrix(0.05,0,0,0.05,79.80000000000001,0)" xlink:href="#ae"/><use transform="matrix(0.05,0,0,0.05,89.80000000000001,0)" xlink:href="#ae"/><use transform="matrix(0.05,0,0,0.05,99.80000000000001,0)" xlink:href="#Z"/><use transform="matrix(0.05,0,0,0.05,103.75,0)" xlink:href="#I"/><use transform="matrix(0.05,0,0,0.05,108.75,0)" xlink:href="#af"/><use transform="matrix(0.05,0,0,0.05,123.7,0)" xlink:href="#ag"/></g><path fill="#3d4752" d="M185-189c-5-48-123-54-124 2 14 75 158 14 163 119 3 78-121 87-175 55-17-10-28-26-33-46l33-7c5 56 141 63 141-1 0-78-155-14-162-118-5-82 145-84 179-34 5 7 8 16 11 25" id="ah"/><path fill="#3d4752" d="M59-47c-2 24 18 29 38 22v24C64 9 27 4 27-40v-127H5v-23h24l9-43h21v43h35v23H59v120" id="ai"/><path fill="#3d4752" d="M141-36C126-15 110 5 73 4 37 3 15-17 15-53c-1-64 63-63 125-63 3-35-9-54-41-54-24 1-41 7-42 31l-33-3c5-37 33-52 76-52 45 0 72 20 72 64v82c-1 20 7 32 28 27v20c-31 9-61-2-59-35zM48-53c0 20 12 33 32 33 41-3 63-29 60-74-43 2-92-5-92 41" id="aj"/><path fill="#3d4752" d="M114-163C36-179 61-72 57 0H25l-1-190h30c1 12-1 29 2 39 6-27 23-49 58-41v29" id="ak"/><g id="k"><use transform="matrix(0.07407407407407408,0,0,0.07407407407407408,0,0)" xlink:href="#ah"/><use transform="matrix(0.07407407407407408,0,0,0.07407407407407408,17.77777777777778,0)" xlink:href="#ai"/><use transform="matrix(0.07407407407407408,0,0,0.07407407407407408,25.185185185185187,0)" xlink:href="#aj"/><use transform="matrix(0.07407407407407408,0,0,0.07407407407407408,40,0)" xlink:href="#ak"/><use transform="matrix(0.07407407407407408,0,0,0.07407407407407408,48.81481481481481,0)" xlink:href="#ai"/></g><filter id="j" filterUnits="objectBoundingBox" x="-.06" y="-.05" width="1.11" height="1.25"><feOffset result="offOut" in="SourceAlpha" dy="6"/><feGaussianBlur result="blurOut" in="offOut" stdDeviation="5"/><feColorMatrix result="colorOut" in="blurOut" values="0 0 0 0 0 0 0 0 0 0 0 0 0 0 0 0 0 0 0.16862745098039217 0"/><feBlend in="SourceGraphic" in2="colorOut"/></filter><path d="M205 0l-28-72H64L36 0H1l101-248h38L239 0h-34zm-38-99l-47-123c-12 45-31 82-46 123h93" id="al"/><path d="M30-248c87 1 191-15 191 75 0 78-77 80-158 76V0H30v-248zm33 125c57 0 124 11 124-50 0-59-68-47-124-48v98" id="am"/><g id="m"><use transform="matrix(0.05,0,0,0.05,0,0)" xlink:href="#al"/><use transform="matrix(0.05,0,0,0.05,12,0)" xlink:href="#am"/><use transform="matrix(0.05,0,0,0.05,24,0)" xlink:href="#N"/></g><filter id="l" filterUnits="objectBoundingBox" x="-.08" y="-.03" width="1.17" height="1.17"><feOffset result="offOut" in="SourceAlpha" dy="6"/><feGaussianBlur result="blurOut" in="offOut" stdDeviation="5"/><feColorMatrix result="colorOut" in="blurOut" values="0 0 0 0 0 0 0 0 0 0 0 0 0 0 0 0 0 0 0.16862745098039217 0"/><feBlend in="SourceGraphic" in2="colorOut"/></filter><g id="n"><use transform="matrix(0.05,0,0,0.05,0,0)" xlink:href="#ab"/><use transform="matrix(0.05,0,0,0.05,12.950000000000001,0)" xlink:href="#Y"/><use transform="matrix(0.05,0,0,0.05,16.900000000000002,0)" xlink:href="#Z"/><use transform="matrix(0.05,0,0,0.05,20.85,0)" xlink:href="#H"/><use transform="matrix(0.05,0,0,0.05,30.85,0)" xlink:href="#L"/><use transform="matrix(0.05,0,0,0.05,40.85,0)" xlink:href="#I"/></g><path d="M232-93c-1 65-40 97-104 97C67 4 28-28 28-90v-158h33c8 89-33 224 67 224 102 0 64-133 71-224h33v155" id="an"/><path d="M30 0v-248h33v221h125V0H30" id="ao"/><g id="o"><use transform="matrix(0.05,0,0,0.05,0,0)" xlink:href="#an"/><use transform="matrix(0.05,0,0,0.05,12.950000000000001,0)" xlink:href="#T"/><use transform="matrix(0.05,0,0,0.05,21.950000000000003,0)" xlink:href="#H"/><use transform="matrix(0.05,0,0,0.05,31.950000000000003,0)" xlink:href="#K"/><use transform="matrix(0.05,0,0,0.05,37.900000000000006,0)" xlink:href="#ad"/><use transform="matrix(0.05,0,0,0.05,42.900000000000006,0)" xlink:href="#ao"/><use transform="matrix(0.05,0,0,0.05,52.900000000000006,0)" xlink:href="#J"/><use transform="matrix(0.05,0,0,0.05,62.900000000000006,0)" xlink:href="#M"/><use transform="matrix(0.05,0,0,0.05,72.9,0)" xlink:href="#L"/></g><g id="p"><use transform="matrix(0.05,0,0,0.05,0,0)" xlink:href="#N"/><use transform="matrix(0.05,0,0,0.05,5,0)" xlink:href="#L"/><use transform="matrix(0.05,0,0,0.05,15,0)" xlink:href="#W"/><use transform="matrix(0.05,0,0,0.05,20,0)" xlink:href="#J"/><use transform="matrix(0.05,0,0,0.05,30,0)" xlink:href="#T"/></g><path d="M177-190C167-65 218 103 67 71c-23-6-38-20-44-43l32-5c15 47 100 32 89-28v-30C133-14 115 1 83 1 29 1 15-40 15-95c0-56 16-97 71-98 29-1 48 16 59 35 1-10 0-23 2-32h30zM94-22c36 0 50-32 50-73 0-42-14-75-50-75-39 0-46 34-46 75s6 73 46 73" id="ap"/><path d="M160-131c35 5 61 23 61 61C221 17 115-2 30 0v-248c76 3 177-17 177 60 0 33-19 50-47 57zm-97-11c50-1 110 9 110-42 0-47-63-36-110-37v79zm0 115c55-2 124 14 124-45 0-56-70-42-124-44v89" id="aq"/><g id="q"><use transform="matrix(0.05,0,0,0.05,0,0)" xlink:href="#af"/><use transform="matrix(0.05,0,0,0.05,14.950000000000001,0)" xlink:href="#J"/><use transform="matrix(0.05,0,0,0.05,24.950000000000003,0)" xlink:href="#L"/><use transform="matrix(0.05,0,0,0.05,34.95,0)" xlink:href="#ap"/><use transform="matrix(0.05,0,0,0.05,44.95,0)" xlink:href="#J"/><use transform="matrix(0.05,0,0,0.05,54.95,0)" xlink:href="#O"/><use transform="matrix(0.05,0,0,0.05,67.9,0)" xlink:href="#aq"/></g><path d="M137 0h-34L2-248h35l83 218 83-218h36" id="ar"/><g id="r"><use transform="matrix(0.05,0,0,0.05,0,0)" xlink:href="#ar"/><use transform="matrix(0.05,0,0,0.05,11,0)" xlink:href="#H"/><use transform="matrix(0.05,0,0,0.05,21,0)" xlink:href="#K"/><use transform="matrix(0.05,0,0,0.05,26.950000000000003,0)" xlink:href="#Z"/><use transform="matrix(0.05,0,0,0.05,30.899999999999995,0)" xlink:href="#W"/><use transform="matrix(0.05,0,0,0.05,35.9,0)" xlink:href="#Z"/><use transform="matrix(0.05,0,0,0.05,39.85,0)" xlink:href="#Q"/><use transform="matrix(0.05,0,0,0.05,48.85,0)" xlink:href="#M"/></g><use transform="matrix(0.05,0,0,0.05,0,0)" xlink:href="#J" id="s"/><g id="t"><use transform="matrix(0.05,0,0,0.05,0,0)" xlink:href="#R"/><use transform="matrix(0.05,0,0,0.05,14.950000000000001,0)" xlink:href="#J"/><use transform="matrix(0.05,0,0,0.05,24.950000000000003,0)" xlink:href="#aa"/><use transform="matrix(0.05,0,0,0.05,34.95,0)" xlink:href="#H"/><use transform="matrix(0.05,0,0,0.05,44.95,0)" xlink:href="#Y"/><use transform="matrix(0.05,0,0,0.05,48.900000000000006,0)" xlink:href="#J"/></g><g id="u"><use transform="matrix(0.05,0,0,0.05,0,0)" xlink:href="#aa"/><use transform="matrix(0.05,0,0,0.05,10,0)" xlink:href="#J"/><use transform="matrix(0.05,0,0,0.05,20,0)" xlink:href="#T"/></g><g id="v"><use transform="matrix(0.05,0,0,0.05,0,0)" xlink:href="#aa"/><use transform="matrix(0.05,0,0,0.05,10,0)" xlink:href="#M"/><use transform="matrix(0.05,0,0,0.05,20,0)" xlink:href="#aa"/><use transform="matrix(0.05,0,0,0.05,30,0)" xlink:href="#J"/><use transform="matrix(0.05,0,0,0.05,40,0)" xlink:href="#T"/></g><g id="w"><use transform="matrix(0.05,0,0,0.05,0,0)" xlink:href="#H"/><use transform="matrix(0.05,0,0,0.05,10,0)" xlink:href="#L"/><use transform="matrix(0.05,0,0,0.05,20,0)" xlink:href="#X"/><use transform="matrix(0.05,0,0,0.05,29,0)" xlink:href="#Z"/><use transform="matrix(0.05,0,0,0.05,32.95,0)" xlink:href="#M"/><use transform="matrix(0.05,0,0,0.05,42.95,0)" xlink:href="#aa"/><use transform="matrix(0.05,0,0,0.05,52.95,0)" xlink:href="#J"/><use transform="matrix(0.05,0,0,0.05,62.95,0)" xlink:href="#T"/></g><g id="x"><use transform="matrix(0.05,0,0,0.05,0,0)" xlink:href="#S"/><use transform="matrix(0.05,0,0,0.05,10,0)" xlink:href="#H"/><use transform="matrix(0.05,0,0,0.05,20,0)" xlink:href="#Y"/><use transform="matrix(0.05,0,0,0.05,23.95,0)" xlink:href="#J"/></g><g id="y"><use transform="matrix(0.05,0,0,0.05,0,0)" xlink:href="#Q"/><use transform="matrix(0.05,0,0,0.05,9,0)" xlink:href="#Y"/><use transform="matrix(0.05,0,0,0.05,12.949999999999998,0)" xlink:href="#Z"/><use transform="matrix(0.05,0,0,0.05,16.9,0)" xlink:href="#H"/><use transform="matrix(0.05,0,0,0.05,26.899999999999995,0)" xlink:href="#L"/><use transform="matrix(0.05,0,0,0.05,36.9,0)" xlink:href="#I"/><use transform="matrix(0.05,0,0,0.05,41.9,0)" xlink:href="#H"/></g><g id="z"><use transform="matrix(0.05,0,0,0.05,0,0)" xlink:href="#O"/><use transform="matrix(0.05,0,0,0.05,12.950000000000001,0)" xlink:href="#M"/><use transform="matrix(0.05,0,0,0.05,22.950000000000003,0)" xlink:href="#aa"/><use transform="matrix(0.05,0,0,0.05,32.95,0)" xlink:href="#J"/><use transform="matrix(0.05,0,0,0.05,42.95,0)" xlink:href="#T"/></g><g id="A"><use transform="matrix(0.05,0,0,0.05,0,0)" xlink:href="#W"/><use transform="matrix(0.05,0,0,0.05,5,0)" xlink:href="#J"/><use transform="matrix(0.05,0,0,0.05,15,0)" xlink:href="#K"/><use transform="matrix(0.05,0,0,0.05,20.95,0)" xlink:href="#M"/><use transform="matrix(0.05,0,0,0.05,30.950000000000003,0)" xlink:href="#R"/></g><path d="M103-251c84 0 111 97 45 133-19 10-37 24-39 52H78c0-63 77-55 77-114 0-30-21-42-52-43-32 0-53 17-56 46l-32-2c7-45 34-72 88-72zM77 0v-35h34V0H77" id="as"/><g id="B"><use transform="matrix(0.05,0,0,0.05,0,0)" xlink:href="#X"/><use transform="matrix(0.05,0,0,0.05,9,0)" xlink:href="#M"/><use transform="matrix(0.05,0,0,0.05,19,0)" xlink:href="#Y"/><use transform="matrix(0.05,0,0,0.05,22.95,0)" xlink:href="#Z"/><use transform="matrix(0.05,0,0,0.05,26.899999999999995,0)" xlink:href="#aa"/><use transform="matrix(0.05,0,0,0.05,36.9,0)" xlink:href="#M"/><use transform="matrix(0.05,0,0,0.05,46.9,0)" xlink:href="#aa"/><use transform="matrix(0.05,0,0,0.05,56.900000000000006,0)" xlink:href="#J"/><use transform="matrix(0.05,0,0,0.05,66.9,0)" xlink:href="#T"/><use transform="matrix(0.05,0,0,0.05,75.9,0)" xlink:href="#as"/></g><path d="M96-169c-40 0-48 33-48 73s9 75 48 75c24 0 41-14 43-38l32 2c-6 37-31 61-74 61-59 0-76-41-82-99-10-93 101-131 147-64 4 7 5 14 7 22l-32 3c-4-21-16-35-41-35zm3 187c19-1 33 8 33 26 0 31-30 33-64 32V58c18 2 39 4 41-13 1-15-18-13-34-13L87 0h19" id="at"/><g id="C"><use transform="matrix(0.05,0,0,0.05,0,0)" xlink:href="#N"/><use transform="matrix(0.05,0,0,0.05,5,0)" xlink:href="#L"/><use transform="matrix(0.05,0,0,0.05,15,0)" xlink:href="#W"/><use transform="matrix(0.05,0,0,0.05,20,0)" xlink:href="#J"/><use transform="matrix(0.05,0,0,0.05,30,0)" xlink:href="#K"/><use transform="matrix(0.05,0,0,0.05,35.95,0)" xlink:href="#R"/><use transform="matrix(0.05,0,0,0.05,50.900000000000006,0)" xlink:href="#M"/><use transform="matrix(0.05,0,0,0.05,60.900000000000006,0)" xlink:href="#at"/><use transform="matrix(0.05,0,0,0.05,69.9,0)" xlink:href="#V"/><use transform="matrix(0.05,0,0,0.05,79.9,0)" xlink:href="#J"/></g><g id="D"><use transform="matrix(0.05,0,0,0.05,0,0)" xlink:href="#am"/><use transform="matrix(0.05,0,0,0.05,12,0)" xlink:href="#H"/><use transform="matrix(0.05,0,0,0.05,22,0)" xlink:href="#K"/><use transform="matrix(0.05,0,0,0.05,27.950000000000003,0)" xlink:href="#T"/><use transform="matrix(0.05,0,0,0.05,36.95,0)" xlink:href="#Z"/><use transform="matrix(0.05,0,0,0.05,40.900000000000006,0)" xlink:href="#T"/><use transform="matrix(0.05,0,0,0.05,49.900000000000006,0)" xlink:href="#I"/><use transform="matrix(0.05,0,0,0.05,54.900000000000006,0)" xlink:href="#H"/></g><g id="E"><use transform="matrix(0.05,0,0,0.05,0,0)" xlink:href="#aa"/><use transform="matrix(0.05,0,0,0.05,10,0)" xlink:href="#M"/><use transform="matrix(0.05,0,0,0.05,20,0)" xlink:href="#aa"/><use transform="matrix(0.05,0,0,0.05,30,0)" xlink:href="#J"/><use transform="matrix(0.05,0,0,0.05,40,0)" xlink:href="#T"/></g><path d="M185-189c-5-48-123-54-124 2 14 75 158 14 163 119 3 78-121 87-175 55-17-10-28-26-33-46l33-7c5 56 141 63 141-1 0-78-155-14-162-118-5-82 145-84 179-34 5 7 8 16 11 25" id="au"/><g id="F"><use transform="matrix(0.05,0,0,0.05,0,0)" xlink:href="#au"/><use transform="matrix(0.05,0,0,0.05,12,0)" xlink:href="#Z"/><use transform="matrix(0.05,0,0,0.05,15.949999999999998,0)" xlink:href="#R"/></g></defs></g></svg>